<svg width="252" height="94" viewBox="0 0 252 94" fill="none" xmlns="http://www.w3.org/2000/svg">
<path d="M29.3 0.199996C45.2333 0.199996 53.2 5.43333 53.2 15.9C53.2 20.1667 51.8333 23.7333 49.1 26.6C46.3667 29.4 42.4 31.1 37.2 31.7C43.9333 32.9667 48.8333 34.9333 51.9 37.6C54.9667 40.2667 56.5 44.0333 56.5 48.9C56.5 55.0333 53.9 59.6 48.7 62.6C43.5 65.5333 36.7333 67 28.4 67H1.3V64.6L8.6 63.6V3.49999L0.1 2.5V0.199996H29.3ZM24.7 33.7L22.1 33.8V64.2C23.3667 64.5333 24.8333 64.7 26.5 64.7C31.1 64.7 34.9667 63.4333 38.1 60.9C41.2333 58.3 42.8 54.0333 42.8 48.1C42.8 40.5667 39.5333 36.0667 33 34.6C30.3333 34 27.5667 33.7 24.7 33.7ZM22.1 2.9V30.9H24.5C29.1667 30.9 32.8 29.6333 35.4 27.1C38 24.5667 39.3 20.9 39.3 16.1C39.3 11.2333 38.3 7.83333 36.3 5.9C34.3 3.9 31.1 2.9 26.7 2.9H22.1ZM92.5742 43.6C84.8409 43.6 79.9742 45.6333 77.9742 49.7C77.1076 51.4333 76.6742 53.6 76.6742 56.2C76.6742 60.6667 78.2076 63.2667 81.2742 64C81.7409 64.1333 82.2409 64.2 82.7742 64.2C84.9076 64.2 87.0409 63.1 89.1742 60.9C91.3076 58.6333 92.4409 55.7333 92.5742 52.2V43.6ZM76.5742 33.8C75.1076 34.8 73.5742 35.3 71.9742 35.3C70.3742 35.3 69.0076 34.7667 67.8742 33.7C66.7409 32.6333 66.1742 31.0667 66.1742 29C66.1742 26.8667 66.8076 24.9667 68.0742 23.3C69.3409 21.6333 70.9742 20.4 72.9742 19.6C76.9076 17.9333 80.6409 17.1 84.1742 17.1C92.0409 17.1 97.4076 18.5 100.274 21.3C103.141 24.0333 104.574 28.2667 104.574 34V64.1L112.974 64.7V66.9L93.8742 68.1L92.9742 59.7C89.8409 65.3667 84.4409 68.2 76.7742 68.2C73.3076 68.2 70.3076 67.1667 67.7742 65.1C65.3076 62.9667 64.0742 60 64.0742 56.2C64.1409 51.1333 66.6742 47.3333 71.6742 44.8C76.6742 42.2 83.6409 40.9 92.5742 40.9V32.3C92.5742 28.2333 92.0076 25.1 90.8742 22.9C89.7409 20.7 87.6409 19.6 84.5742 19.6C81.5076 19.6 79.2076 20.8667 77.6742 23.4C76.6742 25.0667 76.1742 26.8333 76.1742 28.7C76.1742 30.5667 76.3076 32.2667 76.5742 33.8ZM146.127 17.6C149.127 16.4667 150.627 13.4 150.627 8.4C150.627 7.06667 150.461 5.83333 150.127 4.7C151.261 3.9 152.394 3.49999 153.527 3.49999C154.661 3.49999 155.727 3.7 156.727 4.1C159.127 5.1 160.327 6.8 160.327 9.2C160.327 11.5333 159.294 13.5667 157.227 15.3C155.227 17.0333 152.461 18.1333 148.927 18.6C152.927 19.9333 155.994 22.0333 158.127 24.9C160.261 27.7 161.327 31.2 161.327 35.4C161.327 39.5333 159.261 43.4 155.127 47C150.994 50.5333 146.027 52.3 140.227 52.3C134.427 52.3 131.527 53.8667 131.527 57C131.527 58.5333 132.594 59.6 134.727 60.2C136.927 60.7333 141.227 61.3 147.627 61.9C154.027 62.4333 158.861 63.6333 162.127 65.5C165.394 67.3 167.027 70.2 167.027 74.2C167.027 79.4 164.461 83.8333 159.327 87.5C154.261 91.1667 147.627 93 139.427 93C131.294 93 125.294 91.7333 121.427 89.2C117.561 86.7333 115.627 83.4333 115.627 79.3C115.627 76.6333 116.594 74.0667 118.527 71.6C120.461 69.1333 123.294 67.4 127.027 66.4C122.361 64.6667 120.027 62.2333 120.027 59.1C120.027 56.9 121.161 55.1 123.427 53.7C125.694 52.3 128.227 51.5667 131.027 51.5C126.561 50.3 123.094 48.2333 120.627 45.3C118.227 42.3 117.027 38.8 117.027 34.8C117.027 29.6667 119.061 25.4333 123.127 22.1C127.194 18.7667 132.661 17.1 139.527 17.1C141.927 17.1 144.127 17.2667 146.127 17.6ZM126.327 78.2C126.327 81.8667 127.427 84.7 129.627 86.7C131.827 88.7667 135.127 89.8 139.527 89.8C143.994 89.8 147.861 88.6333 151.127 86.3C154.461 83.9667 156.127 81.2 156.127 78C156.194 74.8 155.294 72.7333 153.427 71.8C151.627 70.8667 148.361 70.1 143.627 69.5L142.427 69.4C137.161 68.7333 133.494 68.2333 131.427 67.9C129.961 68.7 128.727 70.0667 127.727 72C126.794 73.9333 126.327 76 126.327 78.2ZM138.827 50.3C141.961 50.3 144.294 48.8667 145.827 46C147.361 43.1333 148.127 39.4 148.127 34.8C148.127 24.4667 145.261 19.3 139.527 19.3C136.394 19.3 134.061 20.7 132.527 23.5C130.994 26.2333 130.227 30 130.227 34.8C130.227 45.1333 133.094 50.3 138.827 50.3ZM197.273 18.2H216.373V20.7L209.373 22.7L193.173 67C190.373 74.3333 187.407 80.3333 184.273 85C180.473 90.6667 175.873 93.5 170.473 93.5C170.073 93.5 169.64 93.4667 169.173 93.4C166.973 93.4 165.207 92.7333 163.873 91.4C162.54 90.1333 161.873 88.4333 161.873 86.3C161.873 84.2333 162.807 82.1333 164.673 80C166.873 82.4667 169.273 83.7 171.873 83.7C175.54 83.7 178.64 82.3333 181.173 79.6C183.707 76.9333 186.073 72.7333 188.273 67L169.073 21.3L164.073 20.3V18.2H187.173V20.3L181.273 21.2L194.073 53.8L205.173 22.7L197.273 20.7V18.2ZM237.345 68.1C230.945 68.1 226.879 65.8667 225.145 61.4C224.412 59.4667 224.045 57.0333 224.045 54.1C224.045 43.0333 224.212 31.9333 224.545 20.8H217.745V18.2H224.645L224.745 3.49999H237.545L237.245 18.2H251.245V20.8H237.245L237.045 28.9C236.845 39.7 236.745 49.6 236.745 58.6C236.745 61.2 237.012 62.9667 237.545 63.9C238.145 64.8333 239.179 65.3 240.645 65.3C242.179 65.3 243.845 64.2667 245.645 62.2C247.512 60.0667 248.845 57.5333 249.645 54.6C250.979 54.6 251.645 55.0667 251.645 56C251.645 56.2 251.612 56.4333 251.545 56.7C250.479 60.1667 248.645 62.9333 246.045 65C243.512 67.0667 240.612 68.1 237.345 68.1Z" fill="white"/>
</svg>
